<?xml version="1.0" encoding="UTF-8"?>
<svg id="Layer_1" data-name="Layer 1" xmlns="http://www.w3.org/2000/svg" xmlns:xlink="http://www.w3.org/1999/xlink" viewBox="0 0 1135.6156 300">
  <defs>
    <linearGradient id="linear-gradient" x1="-1202.9915" y1="9.462" x2="-1202.0914" y2="8.462" gradientTransform="translate(312896.8711 2840.5261) scale(260.1 -300)" gradientUnits="userSpaceOnUse">
      <stop offset="0" stop-color="#fa9c2b"/>
      <stop offset=".1721" stop-color="#d28138"/>
      <stop offset=".4457" stop-color="#975b4d"/>
      <stop offset=".577" stop-color="#814d55"/>
      <stop offset=".6494" stop-color="#774658"/>
      <stop offset=".7706" stop-color="#5d3561"/>
      <stop offset=".9246" stop-color="#341a6f"/>
      <stop offset="1" stop-color="#1d0b77"/>
    </linearGradient>
  </defs>
  <g id="Ralvie_logo" data-name="Ralvie logo">
    <path id="Subtraction_105" data-name="Subtraction 105" d="M130.0104,300h-1.1,1.9-.8,0ZM119.7104,299.6h0c-16.3-1.3-32.3-5.6-47-12.9C11.1104,256.5-16.3896,183.4,10.0104,120h80c16.6,0,30,13.4,30,30s-13.4,30-30,30h-57.3l18.5,25.4,10.6,14.6,57.9,79.6h0ZM157.8104,297h0l-56.7-77.9c38.2-6.1,64.1-42,58-80.2-5.5-34-34.8-58.9-69.2-58.9h-53.8c11.9-12.4,26.2-22.4,42-29.2,8-3.5,16.4-6.2,25-8,17.5-3.7,35.6-3.7,53.1,0,16.6,3.4,32.4,10.1,46.5,19.6,20.9,14.1,37.3,34,47.1,57.2,3.3,7.9,5.9,16,7.6,24.4,11,53.4-12.6,108-58.9,136.7-12.5,7.8-26.2,13.3-40.6,16.5h-.1v-.2ZM145.0104,30h-30c-8.3,0-15-6.7-15-15S106.7104,0,115.0104,0h30c8.3,0,15,6.7,15,15s-6.7,15-15,15Z" fill="url(#linear-gradient)"/>
    <path id="Union_407" data-name="Union 407" d="M360.0104,260V102.3h27.5v26c11.7-21.2,34.5-30.7,54.5-30.7v27.2c-1.6-.3-3.2-.4-4.8-.3-30.1,1-49.7,20.9-49.7,51.9v83.6h-27.5ZM978.0104,175.8c0-48.2,33.8-84.3,80.4-84.3s76.7938,38.302,77.2,78.8c.0811,8.083-.8,13-1,13.7h-130.8c3.8,37.3,31.0001,53,57.4,53s37-8.6,46.3-24.6l19.8,13.4c-14.7,23-38.9,34.1-66.4,34.1-49.5,0-83-35.4-83-84.2h0l.1.1ZM1004.5104,162.7h105.6c-2.6-24.9-20.1-48.5-51.4-48.5s-49.2,17.9-54.3,48.5h.1ZM914.5104,260V101.1h27.8v158.9h-27.8ZM721.6103,94.7h29l54.9,114.9,54.6-114.9h28.7l-83.6,165.3-83.6-165.3h0ZM668.8104,260V40h27.8v220h-27.8ZM593.0104,260v-36.1c-13.4,24.3-38,36.1-61.9,36.1-46.3,0-81.1-35.7-81.1-83.6s35.1-84.9,82-84.9,47.9,11.2,61.3,36.4l26.5-40.5v172.6h-26.8ZM477.8104,176.1c0,34.8,25.2,58.7,57.4,58.7s58.7-28.7,58.7-58.7-23-59.4-58.1-59.4-58.1,24.3-58.1,59.4h.0999ZM907.8104,60.7c0-11.4,9.1-20.6,20.4-20.7,11.4.2,20.5,9.4,20.7,20.7,0,10.8-9.6,20.4-20.7,20.4s-20.4-9.1-20.4-20.3h0v-.1Z" fill="#fff"/>
  </g>
</svg>